<svg id="masque" xmlns="http://www.w3.org/2000/svg" width="2550" height="1650" viewBox="0 0 10200 6600">
<style>
    #boussole path {
        fill:#000;
    }
</style>
    <g id="boussole" class="divers">
        <path id="boussole-2" data-name="boussole" class="divers"
            d="M849,5448h2c-0.015,4.39-1.26,13.57,0,18a57.263,57.263,0,0,1,2,14h2c-0.465,1.28-1.474,1.75-1,4h1c0.293,1.06-1.281.91,0,4h1v5h1v2h1c0.855,2.4-1.043,3.8-1,5h1v6c0.667,0.33,1.334.67,2,1,0.354,1-1.751,1.84-1,4h1v2h1v2h1c0.333,1.67.666,3.33,1,5,0.666,0.33,1.333.67,2,1v3h1v2c0.666,0.33,1.333.67,2,1,0.333,1.33.666,2.67,1,4,0.666,0.33,1.333.67,2,1v2c1,0.67,2,1.33,3,2v1h2c0.333,0.67.666,1.33,1,2,1,0.33,2,.67,3,1v1h3v1c1.333,0.33,2.666.67,4,1v1h5v1q6.5,0.495,13,1v-1h1c1.819-.17,2,1,2,1,3.333-.33,6.667-0.67,10-1v-1h3v-1c2-.67,4-1.33,6-2v-1h2v-1h2v-1h3c0.333-.67.667-1.33,1-2h2c0.57-.38.826-1.35,2-2v2c-3.413,1.95-4.008,4.57-6,8h-1v2c-0.666.33-1.333,0.67-2,1q-0.5,1.5-1,3h-1v2h-1v2h-1v3h-1v3h-1v3h-1c-1.948,6.22,1.637,15.59,3,19v3h1v2h1q2,6.495,4,13c0.667,0.33,1.334.67,2,1,0.333,1.33.667,2.67,1,4l4,3c1.333,1.67,2.667,3.33,4,5h2v1c2,0.67,4,1.33,6,2v1h6v1q7.5,0.495,15,1v2q-9,1.005-18,2v1h-3v1h-3c-0.334.67-.667,1.33-1,2h-2c-1.334,1.67-2.667,3.33-4,5l-4,3v2h-1v2c-0.667.33-1.333,0.67-2,1-0.334,1.33-.667,2.67-1,4-0.667.33-1.334,0.67-2,1q-0.5,3-1,6h-1c-0.333,1.33-.667,2.67-1,4h-1l-1,6h-1v7h-1v3h-1c0.333,0.67.667,1.33,1,2h-1q0.5,7.995,1,16h1v2h1v4h1c0.334,1.33.667,2.67,1,4h1v2c0.666,0.33,1.333.67,2,1v2c0.666,0.33,1.333.67,2,1l5,9h-2c-2.076-3.24-5.773-3.85-9-6-0.333-.67-0.666-1.33-1-2h-2c-0.333-.67-0.667-1.33-1-2h-2c-0.333-.67-0.666-1.33-1-2-1.333-.33-2.667-0.67-4-1v-1h-4a39.375,39.375,0,0,0-22,0h-5v1h-2v1h-3v1c-1.333.33-2.667,0.67-4,1v1h-2v1c-1.667.33-3.334,0.67-5,1q-1,1.5-2,3h-2c-0.334.67-.667,1.33-1,2-1.666,1.33-3.333,2.67-5,4v2c-0.667.33-1.334,0.67-2,1-0.334,1.33-.667,2.67-1,4-0.667.33-1.333,0.67-2,1v3h-1v3c-2.435,6.53-3.1,12.34-3,22h-2q-0.5-10.005-1-20h-1v-2h-1v-3h-1v-3c-0.667-.33-1.334-0.67-2-1v-3l-4-3v-2c-0.667-.33-1.334-0.67-2-1v-1h-2c-0.334-.67-0.667-1.33-1-2h-2v-1h-2v-1h-2v-1h-2c-0.334-.67-0.667-1.33-1-2h-2v-1h-2v-1c-2-.33-4-0.67-6-1v-1h-2c-0.333-.67-0.666-1.33-1-2q-9-1.005-18-2v1h-7q-7.5,2.505-15,5c-0.334.67-.667,1.33-1,2a13.983,13.983,0,0,1-7,4v-1c2.438-1.59.648-.79,2-3h1v-2c0.666-.33,1.333-0.67,2-1v-2h1v-2h1v-3h1v-2h1v-5h1v-3h1c1.852-5.94-.893-14.2-2-18v-7h-1q-0.5-3-1-6h-1c-0.333-1.33-.667-2.67-1-4h-1l-1-6c-0.667-.33-1.334-0.67-2-1-0.333-1.33-.667-2.67-1-4-0.667-.33-1.334-0.67-2-1v-2c-0.666-.33-1.333-0.67-2-1v-2c-2-1.67-4-3.33-6-5-0.333-.67-0.667-1.33-1-2h-2c-0.333-.67-0.666-1.33-1-2h-3v-1h-3v-1h-4v-1c-5.233-1.56-10.594.98-14-2h1c2.7-2.3,10.908-.77,15-2v-1h5v-1h3c0.334-.67.667-1.33,1-2h3v-1c2.449-1.87,3.62-4.06,7-5l1-3h1v-2h1v-2c0.666-.33,1.333-0.67,2-1v-2h1v-3h1v-3h1c0.333-1.33.667-2.67,1-4h1q0.5-3,1-6h1c0.735-1.9,2.76-12.34,2-15h-1v-5h-1l-1-6h-1c-0.333-1.33-.667-2.67-1-4h-1v-2c-0.667-.33-1.334-0.67-2-1q-1-3-2-6c-0.667-.33-1.334-0.67-2-1v-2c-0.667-.33-1.334-0.67-2-1a19.6,19.6,0,0,1-3-7h1c2.6,4.48,3.983,3.15,9,5-0.333.67-.666,1.33-1,2,1-.33,2-0.67,3-1v2c3.624,0.37,4.519,1.04,8,2v1c1-.33,2-0.67,3-1-0.334.67-.667,1.33-1,2h5v1h6c10.9,3.28,19.665-2.74,27-6,2-.33,4-0.67,6-1,0.333-.67.666-1.33,1-2h2v-1c0.666-.33,1.333-0.67,2-1v-2c1-.67,2-1.33,3-2v-2c0.667-.33,1.333-0.67,2-1v-2c0.666-.33,1.333-0.67,2-1v-2c0.667-.33,1.334-0.67,2-1,0.333-1.67.667-3.33,1-5h1v-2h1v-3h1c-0.333-.67-0.666-1.33-1-2h1v-3h1v-6h1v-4h1v-6C847.6,5478.63,849.091,5465.15,849,5448Zm-1,84c-0.067,3.52-.878,4.62-1,7h1v1c-0.667.33-1.334,0.67-2,1q-0.5,3-1,6h-1v2h-1v1h1l5,6c2.807-1.65,3.4-4.03,7-5q-1-3-2-6h-1c0.333-.67.666-1.33,1-2-1.207-3.7-3.456-5.95-4-11h-2Zm-37,19c-3.876,6.44-9.746,4.55-10,16h1v3c1,0.67,2,1.33,3,2,0.333,1.33.666,2.67,1,4,0.666,0.33,1.333.67,2,1v2c1,0.33,2,.67,3,1l8,9c1-.67,2-1.33,3-2v-1h2c0.334-.67.667-1.33,1-2,1.333-.33,2.667-0.67,4-1,0.333-.67.666-1.33,1-2h3l7-6v-4h-1v-4h-1v-2c-1-.67-2-1.33-3-2v-2l-7-6c-0.334-.67-0.667-1.33-1-2-1.678-1.16-2.272-.01-4-2H811Zm83,6c-3.159-.79-4.577-2.95-7-4q-6.5-.495-13-1c-1.879,2.12-4.711,2.36-7,4v1c-1,.67-2,1.33-3,2v2c-0.666.33-1.333,0.67-2,1v2h-1c-1.771,3.34-2.007,6.98-2,12l4,3v1l9,3c0.333,0.67.667,1.33,1,2h2v1c1.76,1.44,2.407,2.28,5,3v-1c2.41-1.58,1.525-2.79,3-4h2q0.5-1.5,1-3c1-.67,2-1.33,3-2v-3l4-3v-2h1c0.96-1.24.718-1.94,2-3C896,5562.52,894.533,5561.42,894,5557Zm-121,55c1.333,0.33,2.667.67,4,1,0.333,0.67.666,1.33,1,2q12.5-.495,25-1,1-1.5,2-3h1v-3h1v-2h1v-2h1v-2h1c0.333-1.33.666-2.67,1-4,0.666-.33,1.333-0.67,2-1q0.5-1.5,1-3h1q0.5-1.5,1-3c-2.764-1.53-8.136-6.65-9-10-6.387-1.57-8.529-7.1-16-8-1.726,1.99-2.326.84-4,2-0.333.67-.667,1.33-1,2-1.667,1.33-3.334,2.67-5,4v2h-1v2h-1v3h-1v2h-1v3h-1v2h-1v3h-1v4h-1C771.764,5605.93,772.518,5609.02,773,5612Zm118-31c-1.5,5.63-7.1,6.66-8,13,3.746,2.38,3.873,5.93,6,10h1v2h1c1.8,4.37-1.339,5.43,4,7v1h2v1h21v-1c2-.67,4-1.33,6-2,0.333-1.67.666-3.33,1-5-1.988-2.35-.759-5.88-2-9h-1v-2h-1l-1-6h-1v-2h-1v-3h-1v-2c-1-.67-2-1.33-3-2-2.111-2.97-1.887-4.94-6-6-2.339-2.33-3.506-1.3-7-1-1.682,2.09-3.714,2.41-6,4q-1,1.5-2,3h-2Zm-67,10v3h1c1.355,1.64,3.491,2.51,5,4,1,1.33,2,2.67,3,4h2v1a34.273,34.273,0,0,0,8-1c0.842-2.23,1.029-5.44,1-9-2.224-1.94-3.743-6.21-5-9C832.9,5585.21,829.813,5589.62,824,5591Zm51,3v-2c-1-.33-2-0.67-3-1v-1c-1-.33-2-0.67-3-1-0.334-.67-0.667-1.33-1-2-3-.67-6-1.33-9-2l-1,3c-0.666.33-1.333,0.67-2,1q-0.5,5.505-1,11c4.376,2.94.548,4,9,4C865.594,5601.13,871.56,5594.89,875,5594Zm-44,19q0.5-1.5,1-3h-1v-3l-4-3v-2c-2-1.67-4-3.33-6-5v-1h-2v1c-2.471,2.02-6.753,9.62-7,14,1.8,0.94,1.575,1.38,4,2,1.188,1.25,7.6,3.24,11,2v-1C828.333,5613.67,829.666,5613.33,831,5613Zm46-16c-3.467,5.85-10.522,7.09-11,16,1.065,0.58,1.6,1.76,2,2h2v1h10c2.8-4.02,5.593-1.02,6-8C881.868,5605.02,883.117,5598.66,877,5597Zm-31,11c-2.809,3.13-6.715,3.1-8,8h-1v7h1v3l4,3c1.885,2.06.6-.02,3,1v1a12.065,12.065,0,0,0,9,0v-1c2.225-1.07,1.107,1.01,3-1,1.56-1.23,4.073-5.44,4-8-0.333-.67-0.667-1.33-1-2,0.007-.04,1.839-0.48,1-2h-1a9.3,9.3,0,0,0-5-7C853.107,5608.04,849.954,5607.95,846,5608Zm-69,17c-1.974,3-2.826.94-4,5h-1l1,11h1v4h1v3h1v2h1v3c3.386,7.58,7.818,17.22,19,17,1.988-2.25,5.506-3.19,8-5q1-1.5,2-3h1v-2c0.667-.33,1.334-0.67,2-1,2.247-2.37,6.089-5.59,7-9a39.406,39.406,0,0,1-5-6v-2c-0.667-.33-1.334-0.67-2-1v-3h-1c-2.107-5.08-1.325-9.51-7-11v-1q-8.5-.495-17-1v1h-1v-1h-6Zm114,38c2.971,0.8,3.936,2.34,6,4v1c2.488,1.66,5.07,1.87,9,2,1.726-1.99,2.327-.85,4-2,1-1.33,2-2.67,3-4,0.666-.33,1.333-0.67,2-1v-2c0.667-.33,1.334-0.67,2-1,0.333-1.67.667-3.33,1-5h1v-3h1c0.333-1.33.666-2.67,1-4h1v-3c2.18-5.73,3.183-10.28,2-17-3.28-1.54-3.864-2.86-9-3v1c-2.666-.33-5.333-0.67-8-1-2.445.07-2.787,0.95-4,1h-1a1.6,1.6,0,0,0-2-1v1h-2v1c-1.332.33-2.666,0.67-4,1v1h-1l-1,3h-1v4h-1c-0.333,1.33-.667,2.67-1,4h-1v3c-1.54,3.3-4.878,4.61-6,9C884.558,5653.44,890.2,5659.92,891,5663Zm-60-36c-3.666-.33-7.334-0.67-11-1v1c-1.667.33-3.334,0.67-5,1-1.213,2.13-2.253,2.18-3,5h1c0.333,1.67.666,3.33,1,5h1v3h1v2h1q1,1.5,2,3h1v-1c3.421-1.92,11.065-9.65,12-14h1c0.229-1.59-1.685-1.25-2-2v-2Zm37,0c-0.727,1.19-3.713,2.93-3,5h1c0.806,3.39,4.807,7.68,7,10,0.666,0.33,1.333.67,2,1v2h1c0.333,0.67.666,1.33,1,2h2v-1c2.471-2.02,6.752-9.62,7-14-1.3-.74-2.634-2.8-3-3h-3C876.278,5627.52,873.742,5627,868,5627Zm-32,11c-1.722,2-2.323.84-4,2-0.333.67-.667,1.33-1,2q-4,3.495-8,7v1h1c2.03,3.46,8.964,7.5,14,8,1-1.85,3.3-4.13,4-6q0.5-6,1-12C839.9,5638.36,841.2,5638.1,836,5638Zm20,1q-0.5,1.5-1,3h-1v2h-1c-1.132,3.46,3.3,10.35,4,13,2,0.33,4,.67,6,1,1.563-1.81,1.976-.86,4-2v-1h2c0.333-.67.666-1.33,1-2,1.334-.33,2.668-0.67,4-1v-3c-2-1.67-4-3.33-6-5-0.334-.67-0.667-1.33-1-2h-3c-0.333-.67-0.666-1.33-1-2C861.381,5638.8,858.9,5639.04,856,5639Zm-14,59v-2c0.666-.33,1.333-0.67,2-1q0.5-7.995,1-16h-1v-8h-1c-2.087-8.23-11.761-7.86-18-12-0.334-.67-0.667-1.33-1-2l-5-3v1q-4,3.495-8,7v2l-10,9v3h-1c1.184,6.31,3.253,7.48,7,11,0.334,0.67.667,1.33,1,2h2v1h2v1h2v1h2v1h2v1c2,0.33,4,.67,6,1,0.334,0.67.667,1.33,1,2C829.319,5699.16,837.657,5698.8,842,5698Zm34-43v2c-0.75,1.19-5.591,2.14-7,3-0.334.67-.667,1.33-1,2h-3v1c-1.667.33-3.334,0.67-5,1q-3,3.495-6,7v13h1c0.276,1.68-.942,1.74-1,2-0.891,3.99.49,8.26,1,11,1,0.33,2,.67,3,1v1c1.85,0.53,6.843-1.61,8-2h4v-1c3-.67,6-1.33,9-2v-1c2-.67,4-1.33,6-2v-1c1.333-.33,2.666-0.67,4-1v-1c2-1.67,4-3.33,6-5v-2h1c0.333-1.67.666-3.33,1-5h-1c-0.415-4.74-2.679-6.26-5-9h-1q-0.5-1.5-1-3c-1-.33-2-0.67-3-1v-2c-2-1.67-4-3.33-6-5v-1h-4Z" />
        <path id="ouest" class="divers"
            d="M705,5599c3.773,0.09,10.91.83,14,2-0.574,2.01.12,0.86-1,2v1c-1.341,1.01-3-.27-4,1v2h-1v2h-1v3h-1v3h-1v3h-1v3h-1v2h-1v3h-1q-0.5,3-1,6c-0.667.33-1.334,0.67-2,1v4h-1c-0.334,2.33-.667,4.67-1,7h-3v-1h-1q-0.5-3-1-6h-1v-3h-1v-2h-1c-0.334-2.33-.667-4.67-1-7h-1c-1.139-1.14,0-.4-2-1l-2-9h-1q-1,4.5-2,9c-0.667.33-1.333,0.67-2,1-0.334,1.33-.667,2.67-1,4h-1v3l-5,12c-2.009-.57-0.865.12-2-1-1-.33-2-0.67-3-1a18.175,18.175,0,0,0-1-4h1v-4h-1v-2h-1v-3h-1v-2h-1l-2-9h-1v-2h-1q-0.5-3-1-6h-1l-2-6h-4q-0.5-1.5-1-3c4.05-1.51,11.386-1.05,17-1v1h1c-0.574,2.01.119,0.86-1,2v1h-3q4,13.005,8,26h2c0.333-1.67.667-3.33,1-5h-1v-1c0.667-.33,1.333-0.67,2-1,1.343-2.44,1.075-5.08,2-8h1l-1-3h1c1.71-2.71,1.816-2.39,2-7-1.667-.67-3.334-1.33-5-2v-3c5.854-.1,13.739-0.6,18,1q-0.5,1.5-1,3h-4l2,9c0.667-.33,1.333-0.67,2-1q-0.5,1.5-1,3h1v2h1c-0.334.67-.667,1.33-1,2h1v3h1v4h1c0.687,1.95.384,3.47,1,5h1v-1h1v-3h1v-1h-1v-1h1v-2h1c-0.333-.67-0.666-1.33-1-2,0.666-.33,1.333-0.67,2-1v-3h1v-3h1v-1h-1v-1h1v-2h1v-3c0.461-1.34.838,0.4,1-1h-1v-1h1v-1h-1v1c-1-.33-2-0.67-3-1v-5Z" />
        <path id="est" class="divers"
            d="M983,5601h32c0.33,0.67.67,1.33,1,2,1.7,1.68,2.74,6.86,3,10h-3c-2-3.46-5.58-5.06-8-8H996v15a10.572,10.572,0,0,0,4,1v-1h4c1.38-2.61,1.77-1.69,2-6h3v1c1.99,2.17,1.1,10.05,1,14h-1v1c-2.01-.57-0.87.12-2-1h-1c-0.33-1.67-.67-3.33-1-5-3.6-.12-6.69-0.97-8,0-2.44,2.61-.607,13.05,0,16h15c1.26-2.34,3.52-3.09,5-5,0.33-1,.67-2,1-3h3c-0.04,5.71-2.01,7.39-3,12h-11a2.651,2.651,0,0,1-3,1v-1h-9c-1.8,0-11,1-11,1v-1h-1v-4h5a10.606,10.606,0,0,0,1-4c-1.5-1.69-1-5.82-1-9v-22h-5v-4Z" />
        <path id="sud" class="divers"
            d="M863,5778c-1-.33-2-0.67-3-1,0.068-4.4-.4-6.34-3-8-1.863-2.05-.507-0.03-3-1-6.735-2.62-11.174,1.29-11,9q3,3.495,6,7h2v1h2q1,1.5,2,3c3.344,2.25,4.661.06,6,5h3c0.115,5.11,1.314,7.37,0,11,0.334,0.67.667,1.33,1,2h-1l-1,3h-1c-1.781,2.57,1.082,1.91-3,3-4.739,5.22-18.7,1.36-26,4v-3h1v-1h-1v-1h1v-3h1v-3c0.471-.96,1.324.13,2-3h1v4c0.666-.33,1.333-0.67,2-1v2c0.975,1.41,4.584,1.58,2,4h4v-1c1.271-.62.509,0.56,1,1,1.754,0.35,8.62-1.41,9-2v-2h1c0.808-1.31-.773-7.64-1-8h-1c-1.334-1.67-2.667-3.33-4-5-1,.33-2,0.67-3,1-0.334-.67-0.667-1.33-1-2h-2v-1c-2.062-1.27-1.634.51-3-2h1c0.605-1.79-3.354-2.18-4-3q-0.5-1.5-1-3h-2c-0.952-1.05.909-.97,1-1-1.561-4.47-.259-9.02,1-15,3.218-1.57,10.2-6.7,16-5v1h4v1c1.667-.33,3.334-0.67,5-1v1h1v4h-1c-0.835,1.73,1,3,1,3Z" />
        <path id="nord" class="divers"
            d="M895,5349c0.594,3.71.58,2.29,0,6a29.776,29.776,0,0,0-7,1v4h-1v14h-1q-0.5,30.495-1,61h-2v1a27.777,27.777,0,0,0-4-1c-1.651-2.81-4.03-3.4-5-7h-2v-3h-1c-1.166-1.36-1.825-1.53-4-2v-2c-2.666-1.77-2.3-3.99-6-5v-3c-2-1.67-4-3.33-6-5q-0.5-1.5-1-3c-1.334-.67-2.667-1.33-4-2v-3h-2c-0.724-2.76-.279-2.24-3-3v-2c-3-1.99-.411-0.83-2-3l-4-3v-2h-1q-1-1.5-2-3h-2c-1.026-.97,1-1,1-1,1.057-1.62-1.5-.86-2-1-1.079-4.1-1.386-1.22-3-3,0.334-.67.667-1.33,1-2-1-.67-2-1.33-3-2v-2c-1-.67-2-1.33-3-2l-1-3c-2.009.57-.865-0.12-2,1-2.13,2.4-1,10.78-1,15q0.5,18.495,1,37h2c-0.374,1.08-1.242,4.24,0,6h1v1h8v1h1v5c-1.333.33-2.667,0.67-4,1v-1H814a2.685,2.685,0,0,1-3,1v-1c-1.667.33-3.334,0.67-5,1v-1c-1.909-1.26-1.659-1.01-2-4,1.138-1.14.4,0,1-2h4c1.4,0.22-.414,1.05,1,1v-1h2a4,4,0,0,1,2-2c-0.425-1.83-.941-2.01,0-5h1q0.5-21.495,1-43c0-5.34.724-13.22-1-17h-1v-2c-1-.67-2-1.33-3-2v-1h-3v-1c-2.334-.75-3.785.63-5,1v-1c-1.587-1.35-1.737-2.17-2-5,2.232-.84,5.439-1.03,9-1,3.432,3,16.819-.5,19,1,3.865,0.95,3.051,2.28,5,5h1c1.424,1.72,2.35,2.41,3,5h2v2c1,0.67,2,1.33,3,2v2c1.666,1.33,3.333,2.67,5,4v2l4,3v1h2c-0.334.67-.667,1.33-1,2h3v4c2.862,1.6,7.108,6.5,8,10h2v2c2.851,1.74,3.532,5.03,6,7h2c1.024,0.98-1,1-1,1-1.051,1.63,1.5.86,2,1v3c2.128,1.21,2.178,2.25,5,3v-6h-1v-41h-1c0.333-.67.667-1.33,1-2h-1c-0.333-1.33-.667-2.67-1-4-3.333-.33-6.667-0.67-10-1v-6c2.585-.26,3.49-1.07,7,0v1Q884.5,5349.505,895,5349Z" />
    </g>
</svg>