<svg id="Groupe_Boussole" data-name="Groupe Boussole" xmlns="http://www.w3.org/2000/svg" width="500" height="500" viewBox="0 0 500 500">
  <defs>
    <style>
      .cls-1 {
        fill-rule: evenodd;
      }
    </style>
  </defs>
  <g id="boussole">
    <path id="rosace" class="cls-1" d="M849,5448h2c-0.015,4.39-1.26,13.57,0,18a57.263,57.263,0,0,1,2,14h2c-0.465,1.28-1.474,1.75-1,4h1c0.293,1.06-1.281.91,0,4h1v5h1v2h1c0.855,2.4-1.043,3.8-1,5h1v6c0.667,0.33,1.334.67,2,1,0.354,1-1.751,1.84-1,4h1v2h1v2h1c0.333,1.67.666,3.33,1,5,0.666,0.33,1.333.67,2,1v3h1v2c0.666,0.33,1.333.67,2,1,0.333,1.33.666,2.67,1,4,0.666,0.33,1.333.67,2,1v2c1,0.67,2,1.33,3,2v1h2c0.333,0.67.666,1.33,1,2,1,0.33,2,.67,3,1v1h3v1c1.333,0.33,2.666.67,4,1v1h5v1q6.5,0.495,13,1v-1h1c1.819-.17,2,1,2,1,3.333-.33,6.667-0.67,10-1v-1h3v-1c2-.67,4-1.33,6-2v-1h2v-1h2v-1h3c0.333-.67.667-1.33,1-2h2c0.57-.38.826-1.35,2-2v2c-3.413,1.95-4.008,4.57-6,8h-1v2c-0.666.33-1.333,0.67-2,1q-0.5,1.5-1,3h-1v2h-1v2h-1v3h-1v3h-1v3h-1c-1.948,6.22,1.637,15.59,3,19v3h1v2h1q2,6.495,4,13c0.667,0.33,1.334.67,2,1,0.333,1.33.667,2.67,1,4l4,3c1.333,1.67,2.667,3.33,4,5h2v1c2,0.67,4,1.33,6,2v1h6v1q7.5,0.495,15,1v2q-9,1.005-18,2v1h-3v1h-3c-0.334.67-.667,1.33-1,2h-2c-1.334,1.67-2.667,3.33-4,5l-4,3v2h-1v2c-0.667.33-1.333,0.67-2,1-0.334,1.33-.667,2.67-1,4-0.667.33-1.334,0.67-2,1q-0.5,3-1,6h-1c-0.333,1.33-.667,2.67-1,4h-1l-1,6h-1v7h-1v3h-1c0.333,0.67.667,1.33,1,2h-1q0.5,7.995,1,16h1v2h1v4h1c0.334,1.33.667,2.67,1,4h1v2c0.666,0.33,1.333.67,2,1v2c0.666,0.33,1.333.67,2,1l5,9h-2c-2.076-3.24-5.773-3.85-9-6-0.333-.67-0.666-1.33-1-2h-2c-0.333-.67-0.667-1.33-1-2h-2c-0.333-.67-0.666-1.33-1-2-1.333-.33-2.667-0.67-4-1v-1h-4a39.375,39.375,0,0,0-22,0h-5v1h-2v1h-3v1c-1.333.33-2.667,0.67-4,1v1h-2v1c-1.667.33-3.334,0.67-5,1q-1,1.5-2,3h-2c-0.334.67-.667,1.33-1,2-1.666,1.33-3.333,2.67-5,4v2c-0.667.33-1.334,0.67-2,1-0.334,1.33-.667,2.67-1,4-0.667.33-1.333,0.67-2,1v3h-1v3c-2.435,6.53-3.1,12.34-3,22h-2q-0.5-10.005-1-20h-1v-2h-1v-3h-1v-3c-0.667-.33-1.334-0.67-2-1v-3l-4-3v-2c-0.667-.33-1.334-0.67-2-1v-1h-2c-0.334-.67-0.667-1.33-1-2h-2v-1h-2v-1h-2v-1h-2c-0.334-.67-0.667-1.33-1-2h-2v-1h-2v-1c-2-.33-4-0.67-6-1v-1h-2c-0.333-.67-0.666-1.33-1-2q-9-1.005-18-2v1h-7q-7.5,2.505-15,5c-0.334.67-.667,1.33-1,2a13.983,13.983,0,0,1-7,4v-1c2.438-1.59.648-.79,2-3h1v-2c0.666-.33,1.333-0.67,2-1v-2h1v-2h1v-3h1v-2h1v-5h1v-3h1c1.852-5.94-.893-14.2-2-18v-7h-1q-0.5-3-1-6h-1c-0.333-1.33-.667-2.67-1-4h-1l-1-6c-0.667-.33-1.334-0.67-2-1-0.333-1.33-.667-2.67-1-4-0.667-.33-1.334-0.67-2-1v-2c-0.666-.33-1.333-0.67-2-1v-2c-2-1.67-4-3.33-6-5-0.333-.67-0.667-1.33-1-2h-2c-0.333-.67-0.666-1.33-1-2h-3v-1h-3v-1h-4v-1c-5.233-1.56-10.594.98-14-2h1c2.7-2.3,10.908-.77,15-2v-1h5v-1h3c0.334-.67.667-1.33,1-2h3v-1c2.449-1.87,3.62-4.06,7-5l1-3h1v-2h1v-2c0.666-.33,1.333-0.67,2-1v-2h1v-3h1v-3h1c0.333-1.33.667-2.67,1-4h1q0.5-3,1-6h1c0.735-1.9,2.76-12.34,2-15h-1v-5h-1l-1-6h-1c-0.333-1.33-.667-2.67-1-4h-1v-2c-0.667-.33-1.334-0.67-2-1q-1-3-2-6c-0.667-.33-1.334-0.67-2-1v-2c-0.667-.33-1.334-0.67-2-1a19.6,19.6,0,0,1-3-7h1c2.6,4.48,3.983,3.15,9,5-0.333.67-.666,1.33-1,2,1-.33,2-0.67,3-1v2c3.624,0.37,4.519,1.04,8,2v1c1-.33,2-0.67,3-1-0.334.67-.667,1.33-1,2h5v1h6c10.9,3.28,19.665-2.74,27-6,2-.33,4-0.67,6-1,0.333-.67.666-1.33,1-2h2v-1c0.666-.33,1.333-0.67,2-1v-2c1-.67,2-1.33,3-2v-2c0.667-.33,1.333-0.67,2-1v-2c0.666-.33,1.333-0.67,2-1v-2c0.667-.33,1.334-0.67,2-1,0.333-1.67.667-3.33,1-5h1v-2h1v-3h1c-0.333-.67-0.666-1.33-1-2h1v-3h1v-6h1v-4h1v-6C847.6,5478.63,849.091,5465.15,849,5448Zm-1,84c-0.067,3.52-.878,4.62-1,7h1v1c-0.667.33-1.334,0.67-2,1q-0.5,3-1,6h-1v2h-1v1h1l5,6c2.807-1.65,3.4-4.03,7-5q-1-3-2-6h-1c0.333-.67.666-1.33,1-2-1.207-3.7-3.456-5.95-4-11h-2Zm-37,19c-3.876,6.44-9.746,4.55-10,16h1v3c1,0.67,2,1.33,3,2,0.333,1.33.666,2.67,1,4,0.666,0.33,1.333.67,2,1v2c1,0.33,2,.67,3,1l8,9c1-.67,2-1.33,3-2v-1h2c0.334-.67.667-1.33,1-2,1.333-.33,2.667-0.67,4-1,0.333-.67.666-1.33,1-2h3l7-6v-4h-1v-4h-1v-2c-1-.67-2-1.33-3-2v-2l-7-6c-0.334-.67-0.667-1.33-1-2-1.678-1.16-2.272-.01-4-2H811Zm83,6c-3.159-.79-4.577-2.95-7-4q-6.5-.495-13-1c-1.879,2.12-4.711,2.36-7,4v1c-1,.67-2,1.33-3,2v2c-0.666.33-1.333,0.67-2,1v2h-1c-1.771,3.34-2.007,6.98-2,12l4,3v1l9,3c0.333,0.67.667,1.33,1,2h2v1c1.76,1.44,2.407,2.28,5,3v-1c2.41-1.58,1.525-2.79,3-4h2q0.5-1.5,1-3c1-.67,2-1.33,3-2v-3l4-3v-2h1c0.96-1.24.718-1.94,2-3C896,5562.52,894.533,5561.42,894,5557Zm-121,55c1.333,0.33,2.667.67,4,1,0.333,0.67.666,1.33,1,2q12.5-.495,25-1,1-1.5,2-3h1v-3h1v-2h1v-2h1v-2h1c0.333-1.33.666-2.67,1-4,0.666-.33,1.333-0.67,2-1q0.5-1.5,1-3h1q0.5-1.5,1-3c-2.764-1.53-8.136-6.65-9-10-6.387-1.57-8.529-7.1-16-8-1.726,1.99-2.326.84-4,2-0.333.67-.667,1.33-1,2-1.667,1.33-3.334,2.67-5,4v2h-1v2h-1v3h-1v2h-1v3h-1v2h-1v3h-1v4h-1C771.764,5605.93,772.518,5609.02,773,5612Zm118-31c-1.5,5.63-7.1,6.66-8,13,3.746,2.38,3.873,5.93,6,10h1v2h1c1.8,4.37-1.339,5.43,4,7v1h2v1h21v-1c2-.67,4-1.33,6-2,0.333-1.67.666-3.33,1-5-1.988-2.35-.759-5.88-2-9h-1v-2h-1l-1-6h-1v-2h-1v-3h-1v-2c-1-.67-2-1.33-3-2-2.111-2.97-1.887-4.94-6-6-2.339-2.33-3.506-1.3-7-1-1.682,2.09-3.714,2.41-6,4q-1,1.5-2,3h-2Zm-67,10v3h1c1.355,1.64,3.491,2.51,5,4,1,1.33,2,2.67,3,4h2v1a34.273,34.273,0,0,0,8-1c0.842-2.23,1.029-5.44,1-9-2.224-1.94-3.743-6.21-5-9C832.9,5585.21,829.813,5589.62,824,5591Zm51,3v-2c-1-.33-2-0.67-3-1v-1c-1-.33-2-0.67-3-1-0.334-.67-0.667-1.33-1-2-3-.67-6-1.33-9-2l-1,3c-0.666.33-1.333,0.67-2,1q-0.5,5.505-1,11c4.376,2.94.548,4,9,4C865.594,5601.13,871.56,5594.89,875,5594Zm-44,19q0.5-1.5,1-3h-1v-3l-4-3v-2c-2-1.67-4-3.33-6-5v-1h-2v1c-2.471,2.02-6.753,9.62-7,14,1.8,0.94,1.575,1.38,4,2,1.188,1.25,7.6,3.24,11,2v-1C828.333,5613.67,829.666,5613.33,831,5613Zm46-16c-3.467,5.85-10.522,7.09-11,16,1.065,0.58,1.6,1.76,2,2h2v1h10c2.8-4.02,5.593-1.02,6-8C881.868,5605.02,883.117,5598.66,877,5597Zm-31,11c-2.809,3.13-6.715,3.1-8,8h-1v7h1v3l4,3c1.885,2.06.6-.02,3,1v1a12.065,12.065,0,0,0,9,0v-1c2.225-1.07,1.107,1.01,3-1,1.56-1.23,4.073-5.44,4-8-0.333-.67-0.667-1.33-1-2,0.007-.04,1.839-0.48,1-2h-1a9.3,9.3,0,0,0-5-7C853.107,5608.04,849.954,5607.95,846,5608Zm-69,17c-1.974,3-2.826.94-4,5h-1l1,11h1v4h1v3h1v2h1v3c3.386,7.58,7.818,17.22,19,17,1.988-2.25,5.506-3.19,8-5q1-1.5,2-3h1v-2c0.667-.33,1.334-0.67,2-1,2.247-2.37,6.089-5.59,7-9a39.406,39.406,0,0,1-5-6v-2c-0.667-.33-1.334-0.67-2-1v-3h-1c-2.107-5.08-1.325-9.51-7-11v-1q-8.5-.495-17-1v1h-1v-1h-6Zm114,38c2.971,0.8,3.936,2.34,6,4v1c2.488,1.66,5.07,1.87,9,2,1.726-1.99,2.327-.85,4-2,1-1.33,2-2.67,3-4,0.666-.33,1.333-0.67,2-1v-2c0.667-.33,1.334-0.67,2-1,0.333-1.67.667-3.33,1-5h1v-3h1c0.333-1.33.666-2.67,1-4h1v-3c2.18-5.73,3.183-10.28,2-17-3.28-1.54-3.864-2.86-9-3v1c-2.666-.33-5.333-0.67-8-1-2.445.07-2.787,0.95-4,1h-1a1.6,1.6,0,0,0-2-1v1h-2v1c-1.332.33-2.666,0.67-4,1v1h-1l-1,3h-1v4h-1c-0.333,1.33-.667,2.67-1,4h-1v3c-1.54,3.3-4.878,4.61-6,9C884.558,5653.44,890.2,5659.92,891,5663Zm-60-36c-3.666-.33-7.334-0.67-11-1v1c-1.667.33-3.334,0.67-5,1-1.213,2.13-2.253,2.18-3,5h1c0.333,1.67.666,3.33,1,5h1v3h1v2h1q1,1.5,2,3h1v-1c3.421-1.92,11.065-9.65,12-14h1c0.229-1.59-1.685-1.25-2-2v-2Zm37,0c-0.727,1.19-3.713,2.93-3,5h1c0.806,3.39,4.807,7.68,7,10,0.666,0.33,1.333.67,2,1v2h1c0.333,0.67.666,1.33,1,2h2v-1c2.471-2.02,6.752-9.62,7-14-1.3-.74-2.634-2.8-3-3h-3C876.278,5627.52,873.742,5627,868,5627Zm-32,11c-1.722,2-2.323.84-4,2-0.333.67-.667,1.33-1,2q-4,3.495-8,7v1h1c2.03,3.46,8.964,7.5,14,8,1-1.85,3.3-4.13,4-6q0.5-6,1-12C839.9,5638.36,841.2,5638.1,836,5638Zm20,1q-0.5,1.5-1,3h-1v2h-1c-1.132,3.46,3.3,10.35,4,13,2,0.33,4,.67,6,1,1.563-1.81,1.976-.86,4-2v-1h2c0.333-.67.666-1.33,1-2,1.334-.33,2.668-0.67,4-1v-3c-2-1.67-4-3.33-6-5-0.334-.67-0.667-1.33-1-2h-3c-0.333-.67-0.666-1.33-1-2C861.381,5638.8,858.9,5639.04,856,5639Zm-14,59v-2c0.666-.33,1.333-0.67,2-1q0.5-7.995,1-16h-1v-8h-1c-2.087-8.23-11.761-7.86-18-12-0.334-.67-0.667-1.33-1-2l-5-3v1q-4,3.495-8,7v2l-10,9v3h-1c1.184,6.31,3.253,7.48,7,11,0.334,0.67.667,1.33,1,2h2v1h2v1h2v1h2v1h2v1c2,0.33,4,.67,6,1,0.334,0.67.667,1.33,1,2C829.319,5699.16,837.657,5698.8,842,5698Zm34-43v2c-0.75,1.19-5.591,2.14-7,3-0.334.67-.667,1.33-1,2h-3v1c-1.667.33-3.334,0.67-5,1q-3,3.495-6,7v13h1c0.276,1.68-.942,1.74-1,2-0.891,3.99.49,8.26,1,11,1,0.33,2,.67,3,1v1c1.85,0.53,6.843-1.61,8-2h4v-1c3-.67,6-1.33,9-2v-1c2-.67,4-1.33,6-2v-1c1.333-.33,2.666-0.67,4-1v-1c2-1.67,4-3.33,6-5v-2h1c0.333-1.67.666-3.33,1-5h-1c-0.415-4.74-2.679-6.26-5-9h-1q-0.5-1.5-1-3c-1-.33-2-0.67-3-1v-2c-2-1.67-4-3.33-6-5v-1h-4Z" transform="translate(-572.496 -5349)"/>
    <path id="est" class="cls-1" d="M1048,5580v2c0.67,0.33,1.33.67,2,1v6c0.67,0.33,1.33.67,2,1v6c0.67,0.33,1.33.67,2,1,0.43,1.97-.55,1.29-1,2v1h-2c-2.72-4.88-7.02-8.35-11-12-0.33-.67-0.67-1.33-1-2h-3c-0.33-.67-0.67-1.33-1-2h-2v-1h-25v34h18c1-1.33,2-2.67,3-4h1v-7h1v-1c2.74,0.64,2.28,1.31,5,2q-0.495,8.505-1,17h1v7a10.587,10.587,0,0,1-4,1,8.994,8.994,0,0,0-2-2v-5c-0.31-.68-1.28-0.08-2-3-5.38-.97-13.15-1.01-20-1v32c3.04,2.08.42,1.76,2,4h1v-1c4.84,1.8,29.9,1.4,31,0q4.995-4.5,10-9v-3h1c1.71-2.14,1.35-2.52,5-3v6c-0.67.33-1.33,0.67-2,1v3c-0.67.33-1.33,0.67-2,1v5h-1c-0.83,1.45-.68,1.71-1,4-9.14,1.63-30.05,2.5-39,0q-14,.495-28,1a10.606,10.606,0,0,1-1-4h1v-1c3.1,0.11,7.411.47,9-1,2.442-2.78,1-13.25,1-18v-50h-1v-4h-1v-1h-8v-1c-1.139-1.14-.4,0-1-2,4.828-1.77,13.55-1,20-1h41v1h3Z" transform="translate(-572.496 -5349)"/>
    <path id="sud" class="cls-1" d="M873,5767v5h-1q0.5,5.505,1,11c-1.8.94-1.574,1.38-4,2,0.226-6.79-.954-11.61-5-14v-1h-4v-1h-2v-1c-5.684-1.96-10.77,1.5-15,2-0.723,2.76-.279,2.24-3,3-0.278,2.3-.19,2.55-1,4h-1v10c3.116,2.07.438,1.43,2,4q4,3.495,8,7v1h3c0.333,0.67.667,1.33,1,2h3c1.333,1.67,2.667,3.33,4,5,1.333,0.33,2.667.67,4,1v1h4q0.5,1.5,1,3c0.667,0.33,1.333.67,2,1,2.749,2.9,3.971,4.06,4,10,2.5,1.66,2.144,4.78,2,9h-2v7c-1,.33-2,0.67-3,1-1.283,4.93-5.685,6.07-10,8v1h-9v1H841v-1h-1v1h-5v-1c-1,.33-2,0.67-3,1v-1c-2.333.33-4.667,0.67-7,1v2h-2v-5c0.667-.33,1.333-0.67,2-1v-7h1v-5h1c1.361-1.94,2.231-2.3,3-5h1v6c1.1,2.16,4.67,1.33,6,4h1c2.2-.39-2,1-2,1v2h2v2h7v1c1.4,0.19-.385-0.71,1-1h5v1c2-.33,4-0.67,6-1,1.679-2.84,3.451-2.72,4-7h2v-10h-2v-4q-3.5-2.505-7-5l-2-3h-2v-1c-1.333.33-2.667,0.67-4,1v-1h-2c-0.333-.67-0.667-1.33-1-2h-3v-1h1a4.16,4.16,0,0,0-1-4h-2c-0.333-.67-0.667-1.33-1-2h-2q-0.5-1.5-1-3c-1-.67-2-1.33-3-2-1.3-2.05.148-4.42-1-7-0.667-.33-1.333-0.67-2-1v-10c1-.67,2-1.33,3-2v-3h1c0.734-1.43.807-4.19,2-5h3l2-3c2-.33,4-0.67,6-1,1.822-.62,7.351-3.82,10-3v1h2v1h6v1C867.436,5768.38,868.048,5767.04,873,5767Z" transform="translate(-572.496 -5349)"/>
    <path id="ouest" class="cls-1" d="M719,5580v4c-3.035.73-2.1,1.57-3,2h-4v1c-1,.67-2,1.33-3,2v3l-5,3v5c-0.667.33-1.333,0.67-2,1v5c-0.667.33-1.333,0.67-2,1v5c-0.667.33-1.333,0.67-2,1v5c-0.667.33-1.333,0.67-2,1v3c-0.667.33-1.333,0.67-2,1v5h-2v6h-2c-0.057,4.56-1.171,4.79-2,8h-2v7c-0.667.33-1.333,0.67-2,1v5c-0.667.33-1.333,0.67-2,1q0.5,1.5,1,3h-1v4h-5c-0.333-1.67-.667-3.33-1-5-0.667-.33-1.333-0.67-2-1v-5c-0.667-.33-1.333-0.67-2-1v-5c-0.667-.33-1.333-0.67-2-1v-5c-0.667-.33-1.333-0.67-2-1v-5c-0.667-.33-1.333-0.67-2-1v-5c-0.667-.33-1.333-0.67-2-1v-4h-1v-3h-1v-2h-1q-0.5-4.5-1-9h-1v-2h-1q-0.5-1.5-1-3c-2.01.57-.865-0.12-2,1h-1c-0.333,1.67-.667,3.33-1,5h-1v4h-1v3h-1v4h-1v4c-1,.67-2,1.33-3,2v4c-0.667.33-1.333,0.67-2,1v3c-0.667.33-1.333,0.67-2,1v5c-0.667.33-1.333,0.67-2,1v5c-0.667.33-1.333,0.67-2,1q-1,4.5-2,9c-0.667.33-1.333,0.67-2,1-0.878,2.11.6,2.5,1,3-0.333.67-.667,1.33-1,2-2.078,1.09-1.771,1.61-5,2-0.851-4.37-3.533-8.31-5-12-0.333-2.33-.667-4.67-1-7-0.667-.33-1.333-0.67-2-1q-1-4.5-2-9c-0.667-.33-1.333-0.67-2-1v-3c-0.667-.33-1.333-0.67-2-1v-5h-2v-6h-2v-6h-2v-4h-2v-6h-2v-6h-2v-5c-2.906-1.65-3.682-3.76-5-7-4.906.02-5.694-1.15-9-2v-4c2.562-.69,14.074-4.01,19-2,0.333,0.67.667,1.33,1,2,1.7,0.53,1.754-.94,2-1h7v-1c2.182-.43,6.508,2.04,7,3v3c-3.3.68-3.839,1.75-8,2v6c0.667,0.33,1.333.67,2,1v3c0.667,0.33,1.333.67,2,1v5c0.667,0.33,1.333.67,2,1v5c0.667,0.33,1.333.67,2,1v7c0.667,0.33,1.333.67,2,1v4c0.667,0.33,1.333.67,2,1v5h1v2h1c-0.333,1.33-.667,2.67-1,4,1,0.67,2,1.33,3,2v1h-1q0.5,1.5,1,3h1c1.139-1.14,0-.4,2-1,0.333-1.33.667-2.67,1-4h1v-6c0.667-.33,1.333-0.67,2-1v-7h2v-6h2v-5h1c0.867-1.56.81-2.42,1-5h2v-5c0.667-.33,1.333-0.67,2-1v-10a9.017,9.017,0,0,1-2-2h-5c-0.68-.31-0.078-1.28-3-2v-5h1v-1c6.953,1.18,21.581,1.58,27,1,1.406-.15-0.413-1.06,1-1v1c3.872,1.01,1.98-2.18,4,0,1,0.67,2,1.33,3,2-1.094,2.08-1.611,1.77-2,5h-7a15.686,15.686,0,0,0-1,6c3.768,2.57.386,2.28,2,6,0.667,0.33,1.333.67,2,1v5h2v4h2v8h2c0.034,6.58,1.838,7.4,2,14h2v7c1.518,0.95,1.694,1.95,3,3v-1c3.428-2.33,3.093-2.02,2-6,1-.67,2-1.33,3-2,0.342-.85-1.573-1.94-1-4h1c-0.333-.67-0.667-1.33-1-2,1-.67,2-1.33,3-2,0.392-.97-1.947-1.9-1-4,1-.67,2-1.33,3-2-0.333-1.33-.667-2.67-1-4,1-.67,2-1.33,3-2,0.378-.98-1.865-1.87-1-4,0.667-.33,1.333-0.67,2-1v-5c0.667-.33,1.333-0.67,2-1v-7c0.667-.33,1.333-0.67,2-1q-0.5-1.5-1-3h1v-3c-1.719.17-4.175,1.25-6,0v-1c-1.361-1.17-1.528-1.82-2-4,2.717-1.81,1.643-3.41,6-4,0.333,0.67.667,1.33,1,2,1.333-.33,2.667-0.67,4-1v1h3v1a2.538,2.538,0,0,0,3-1C711.915,5577.99,716.324,5579.55,719,5580Z" transform="translate(-572.496 -5349)"/>
    <path id="nord" class="cls-1" d="M802,5349q14.5,0.495,29,1c0.678,1.24,1.566,1.36,2,2v2c1.818,2.57,3.816,1.67,5,6h2v2h1q0.5,1.5,1,3c2,1.67,4,3.33,6,5v2c1,0.67,2,1.33,3,2v2c1.667,1.33,3.333,2.67,5,4v2c1.667,1.33,3.333,2.67,5,4v2c1,0.67,2,1.33,3,2v2l4,3v2c1.667,1.33,3.333,2.67,5,4v2h1c1.875,3.11,2.038,4.94,6,6q-0.5-5.505-1-11c-0.309-13.42,2.12-31.88-2-42h-1v-1h-8v-1h-1v-4a15.721,15.721,0,0,1,6-1c3.151,2.88,17.753.2,22,0,0.594,3.72.58,2.29,0,6h-6v1h-1v4h-1v14h-1q-0.5,30.495-1,61h-5v-1c-3.965-1.04-4.125-2.9-6-6h-1v-2h-1c-0.333-.67-0.667-1.33-1-2h-2v-1c-1-.67-2-1.33-3-2v-2c-0.667-.33-1.333-0.67-2-1v-1c-0.667-.33-1.333-0.67-2-1v-2c-1.84-2.56-3.856-1.69-5-6h-2c-1.168-4.43-3.76-3.55-5-8h-2v-3h-1c-1.139-1.14,0-.4-2-1v-2c-4.342-2.52-6.113-6.98-9-11l-4-3v-2c-1-.67-2-1.33-3-2-1.612-1.82-4.391-6.27-5-9-1,.33-2,0.67-3,1-0.17,20.26-.281,42,3,59h1v1h8v1h1v5c-4.612.73-13.579-.05-21,0a70.579,70.579,0,0,0-7,1v-1c-1.909-1.26-1.659-1.01-2-4a8.616,8.616,0,0,0,2-2c1.333,0.33,2.667.67,4,1,3.089-1.02,3.988-3.55,4-8,2.448-2.76,1-13.26,1-18q0.5-19.5,1-39h-1c-0.333-1.67-.667-3.33-1-5-1-.67-2-1.33-3-2v-1h-3c-3.781-1.52-5.784-.44-7-5C802.139,5349.86,801.4,5351,802,5349Z" transform="translate(-572.496 -5349)"/>
  </g>
</svg>
