<svg xmlns="http://www.w3.org/2000/svg" width="1824" height="35" viewBox="0 0 1824 35">
  <defs>
    <style>
      .cls-1 {
        fill-rule: evenodd;
        stroke:#000;
        stroke-width:10px;
        stroke-opacity:1;
      }

    </style>
  </defs>
  <path id="echelle" class="cls-1" d="M1201,6195h8v26h355c0.02-8.69.69-13.7,0-21-0.33-.67-0.67-1.33-1-2h1v-2c3.83-.29,4.59-1.31,6,0,0.92,0.97,2.52,5.66,2,8,0,0-1.43.52-1,3h1q-0.495,6.495-1,13c5.03,1.87,14.32,1.05,21,1,2.73,2.39,17.76,0,23,0h67c84.27,0,161.21-.03,248,0v-23c2.32-.87,4.41-1.02,8-1v24c2.58,0.17,3.45.14,5,1v1q15-1.005,30-2h317v-25c2.32-.87,4.41-1.02,8-1,0.6,5.46,0,17.44,0,26q16.5,0.495,33,1c8.34-2.35,21.91-1,32-1h121v1c6.18,1.76,16.29-.66,21-1,6.65-.48,22.01,0,32,0h119c-0.1-7.73-1.23-19.01,1-25,2.74,0.32,4.74,1.05,6,0,2.11,2.35,1.09,19.99,1,25h5c0.33,0.67.67,1.33,1,2h6v-1c1,0.33,2,.67,3,1v-1q18.495-.495,37-1h302v-26h5c2.67,7.24,1.05,23.64,1,33-2.85.68-2.53,1.8-3,2h-13v-1h-8v1c-3.33-.33-6.67-0.67-10-1v1c-0.34.05-3.58-1.64-6-1v1q-13.005-.495-26-1h-5c-1.39.24,0.41,0.85-1,1v-1h-4c-1.4.19,0.41,1.01-1,1v-1c-7.07-1.54-21.38.05-27,1-1.68.28-1.74-.94-2-1h-7v1c-2-.33-4-0.67-6-1h-13v1c-1-.33-2-0.67-3-1v1h-1v-1h-8c-9.73-.01-22.54-0.08-28,1q-6.495-.495-13-1-10.995-.495-22-1c-1.38.31,0.41,0.9-1,1v-1h-1v1h-13v-1c-3,.33-6,0.67-9,1,0,0-.01-1.31-2-1v1h-13s0.03-1.3-2-1v1c-3.45.76-6.19-1.26-8-1v1h-4v-1h-1v1h-6v-1h-1c-2.48,1.11-10.96,2.12-15,1v-1q-7.995.495-16,1s0.01-1.31-2-1v1h-33v-1c-3,.33-6,0.67-9,1h-27c-6.49,0-15.39-.96-19,0-5.19,1.38-24.12-.01-28-1q-9.495.495-19,1h-71c-1.42-.23-3.32-1.7-6-1-3.66.96-15.87,2.27-21,1v-1a2.625,2.625,0,0,0-3,1h-15c-3.33-.33-6.67-0.67-10-1-10.9,2.69-30.12,1.29-43,1-2.67-.33-5.33-0.67-8-1v1h-1v-1a2.591,2.591,0,0,0-3,1c-2.5.62-3.71-1.01-5-1v1h-13c-9.38,0-21.27.71-29-1-2.33.33-4.67,0.67-7,1-7.04-.86-23.54.03-34,0-3.52-.01-6.87-1.08-9-1v1h-1v-1c-2.29-.41-3,1-3,1-1.33-.33-2.67-0.67-4-1v1h-7v1h-12v-1h-6v1h-7v-1c-1,.33-2,0.67-3,1v-1h-10v1h-1v-1h-8v1h-1v-1c-1,.33-2,0.67-3,1v-1h-14a2.667,2.667,0,0,1-3,1v-1c-4.01-1-9.49.77-12,1-3.95-1.79-15.32-1.96-21-1v1h-1v-1h-9v1h-1v-1h-17v1h-1v-1c-1,.33-2,0.67-3,1v-1h-6v1c-1.68.28-1.73-.94-2-1h-11v1h-1v-1h-15v1h-4v-1h-26c-6.75-1.89-13.92,1.78-22,0v-1c-1.69-.28-1.73.94-2,1h-28c-1-.33-2-0.67-3-1v1c-3.95.9-10.09-1.3-12-1v1h-15v-1q-7.005.495-14,1h-2v-1c-1.69-.28-1.73.94-2,1h-21c-19.03,0-44.15,1.4-64-1-2.33.33-4.67,0.67-7,1-12.01.27-24.53-1.19-34,0v-1c-1.75-.32-1.65.91-2,1h-49c-10.54,0-23.06.07-32-1-2.65-.32-3,1-3,1-5.14,1.37-17.28-.18-21-1a2.625,2.625,0,0,0-3,1c-5.92,1.5-16.61-.03-21-1a2.625,2.625,0,0,0-3,1h-14c-10.8,0-24.94,1.31-34-1-3.67.33-7.33,0.67-11,1v-1c-2.07-.3-2,1-2,1h-17c-8.15,0-18.47.47-25-1-2,.33-4,0.67-6,1v-1c-2.07-.3-2,1-2,1h-40v-1q-16.005.495-32,1h-10v-1c-2.67.33-5.33,0.67-8,1v-1a2.636,2.636,0,0,0-3,1h-11c-6.43-1.33-25.7,0-40,0h-15v-1c-2.03-.35-3.73,1.84-7,1v-1c-3.33.33-6.67,0.67-10,1h-93c-11.22,0-25.48,1.13-35-1-2.67.33-5.33,0.67-8,1v-1h-1v1c-0.67-.33-1.33-0.67-2-1v1h-10v-1c-0.67.33-1.33,0.67-2,1v-1c-2.08-.3-2,1-2,1h-28v-1q-6,.495-12,1c-1.38-.29.41-0.97-1-1v1c-0.67-.33-1.33-0.67-2-1v1c-2.23.39-3-1-3-1-1.84-.31-2,1-2,1h-1v-1h-1v1h-5v-1q-7.5.495-15,1c-5.27-1.36-18.17-.24-25-3C1199.22,6218.46,1200.95,6204.39,1201,6195Z" transform="translate(-1200.41 -6195)"/>
</svg>
