<svg id="masque" xmlns="http://www.w3.org/2000/svg" width="2550" height="1650" viewBox="0 0 10200 6600">
<style>
    #echelle {
        fill:#000;
    }
</style>
    <g id="echelle" class="divers">
        <path id="echelle-2" class="divers"
            d="M1407,6032c0.33,1,.67,2,1,3h1v2h1c0.33,2.33.67,4.67,1,7h1c2.24,7.52-1.7,16.28-2,22-2.99,2.01-.48.98-2,3h-1c-0.67,1-1.33,2-2,3h-2c-0.33.67-.67,1.33-1,2h-5v1s-5.44-.92-7-1c-1.49-2.22-4.58-2.9-6-5-1.95-2.89-5.98-18.51-4-25,1.04-3.4,3.18-6.35,4-10h2c1.05-3.93.33-1.33,3-3v-1h2c0.33-.67.67-1.33,1-2h8A16.646,16.646,0,0,0,1407,6032Zm-61-3h21v4h-19q-0.495,7.5-1,15,6.495,1.005,13,2v1c1,0.33,2,.67,3,1,0.33,0.67.67,1.33,1,2,0.67,0.33,1.33.67,2,1,1.97,2.81,2.04,6.06,2,11a12.185,12.185,0,0,0-4,6c-1.33.33-2.67,0.67-4,1v1c-4.31,1.49-16.39-.37-18-2-1.13-.84-0.15.13-1-1,1.13-.84.15,0.13,1-1,1.06,0.58,1.6,1.76,2,2h2v1h9c1.2-1.4,3.24-2.21,5-3,0.58-4.65,3.53-9.29,0-13-0.83-3.72-2.46-4.88-7-5-2.23-2.15-6.52-1.43-9-1A124.772,124.772,0,0,0,1346,6029Zm46,1c-0.83,3.18-3.13,4.69-4,7v5h-1q0.495,11.505,1,23h1c0.33,1.67.67,3.33,1,5,3.12,1.82,3.39,2.98,9,3,0.67-1,1.33-2,2-3h1v-2h1v-3h1c3.03-8.57,1.28-30.54-4-34C1397.55,6028.47,1395.65,6029.62,1392,6030Zm-176,102c0.33,1,.67,2,1,3h1c0.33,2,.67,4,1,6h1c1.79,5.65-.53,23.22-3,27h-1c-1,1.33-2,2.67-3,4h-2c-1.84.96-6.04,3.42-10,2v-1h-2v-1h-3v-1c-2.28-1.98-.28-1.84-4-3-0.66-2.82-2.26-5.51-3-8v-19h1v-3c0.67-.33,1.33-0.67,2-1v-3c1.33-1,2.67-2,4-3v-1h2c0.33-.67.67-1.33,1-2h5v-1c1.65-.67,1.82.96,2,1h4v1h2v1A8.873,8.873,0,0,0,1216,6132Zm314-5c-1.42,8.69-2.54,37.23,2,46h-11v-1c3.85-2.65.69-8.68,2-14,1.18-4.82.81-16.56-1-26h-5v-1C1522.84,6130.8,1524.87,6128.1,1530,6127Zm46,4a9.133,9.133,0,0,0,2,4h1v3h1v4c3.59,11.33,1.24,30.34-12,31v1c-2.76,1.61-10.54-2.36-12-3-0.33-1-.67-2-1-3h-2l-3-9v-18c0.67-.33,1.33-0.67,2-1v-4c1-.67,2-1.33,3-2v-2c1-.33,2-0.67,3-1v-1c1.91-1.53,2.47-1.82,6-2C1566.96,6125.48,1572.69,6130.16,1576,6131Zm40,0c0.84,3.2,3.07,4.65,4,7v4h1c0.9,2.91,1.01,14.71,0,18h-1v4h-1v2h-1a8.35,8.35,0,0,0-2,4c-3.17.86-8.94,5.77-14,4v-1c-2-.67-4-1.33-6-2-0.65-1.13-1.64-1.45-2-2v-2c-0.67-.33-1.33-0.67-2-1-0.33-2.33-.67-4.67-1-7-4.35-13.93.94-30.79,14-31C1607.74,6125.91,1612.61,6130.14,1616,6131Zm328,0c0.33,1,.67,2,1,3h1v3c0.67,0.33,1.33.67,2,1q1.005,7.005,2,14h-1c-1.29,4.81.77,9.05-2,12a7.275,7.275,0,0,1-2,4h-1v2h-1c-1.36,1.47-.49,1.37-3,2-4.21,4.23-12.09.7-16-1-0.33-1-.67-2-1-3h-2l-3-9v-17h1v-3h1v-3c1-.67,2-1.33,3-2v-2c1-.33,2-0.67,3-1v-1c2.06-1.65,3.07-1.94,7-2v-1h1v1h5c0.33,0.67.67,1.33,1,2C1941.33,6130.33,1942.67,6130.67,1944,6131Zm313,19c5.43,0.27,3.94,1.87,8,3,0.33,1,.67,2,1,3h1c1.01,2.12.54,7.28,0,8-0.74,4.01-3.18,7.07-7,8-0.75.82-9.27,3.71-12,2v-1c4.72-.03,6.35-1.23,10-2a13.428,13.428,0,0,1,3-4q-0.495-6.495-1-13c-3.19-.75-4.14-3-7-4h-6v-1c5.34-.01,10.87-1.75,12-6,2.36-2.48.58-9.26,0-12-4.26-2.25-6.27-2.09-13-2-1.51,2.63-3.19,3.38-4,7h-1v-6c1.14-1.14.4,0,1-2h9v-1c3.33,0.33,6.67.67,10,1,2.97,4.94,5.03,3.14,5,12-2.03,1.7-.85,2.35-2,4h-1c-0.67,1-1.33,2-2,3-1.49.94-3.1-.41-4,1v2Zm47-19c0.33,1,.67,2,1,3h1v3c0.67,0.33,1.33.67,2,1v3h1v8h1c0.28,1.68-.94,1.73-1,2v8h-1v3h-1v3c-1.67,2.33-3.33,4.67-5,7-2,.33-4,0.67-6,1v1h-6v-1c-2-.67-4-1.33-6-2-0.33-1-.67-2-1-3h-2l-3-9v-18h1c0.33-1.67.67-3.33,1-5,1-.67,2-1.33,3-2v-2c1-.33,2-0.67,3-1v-2c3.25-.62,9.68-2.53,13-1,0.33,0.67.67,1.33,1,2C2301.33,6130.33,2302.67,6130.67,2304,6131Zm40,0c0.33,1,.67,2,1,3h1v3c0.67,0.33,1.33.67,2,1q1.005,6.495,2,13h-1v9h-1v2h-1v4c-0.67.33-1.33,0.67-2,1-1.82,2.62,1.08,1.83-3,3v2c-9.12,1.88-9.75,2.46-18-1-0.65-1.13-1.64-1.45-2-2v-2c-0.67-.33-1.33-0.67-2-1-0.33-2.33-.67-4.67-1-7-4.3-13.79,1.1-30.82,14-31v-1h1v1h5c0.33,0.67.67,1.33,1,2C2341.33,6130.33,2342.67,6130.67,2344,6131Zm313-4c5.33,0.79,9.72,2.08,12,6,8.45,7.81,6.39,36.11-5,39-1.89,1.96-5.05,2.05-9,2v-1h-3c-0.33-.67-0.67-1.33-1-2h-2v-1c-1-.67-2-1.33-3-2v-2c-0.67-.33-1.33-0.67-2-1v-3h-1v-5h-1c-1.65-5.69,1.19-19.25,3-22,1.67-1.33,3.33-2.67,5-4,0.67-1,1.33-2,2-3h5v-1Zm371,3v2h2c0.33,1,.67,2,1,3h1c0.33,1.67.67,3.33,1,5h1v4h1q-0.495,9.495-1,19h-1v2h-1c-0.89,1.39-.7,1.74-1,4-2.67.76-3.11,1.61-5,3v1h-3v1c-6.25,2-11.22-3-15-4-0.33-1.33-.67-2.67-1-4-0.67-.33-1.33-0.67-2-1-0.33-2.67-.67-5.33-1-8h-1c-1.35-4.69.69-17.06,2-20h1v-2h1c0.33-1,.67-2,1-3,2.7-.77,3.06-1.64,5-3v-1c1.7-.83,10.23-0.79,12,0,0.33,0.67.67,1.33,1,2h2Zm-1129,27h-2v2h-1q-3,3.495-6,7h-2c-0.33,1.33-.67,2.67-1,4,1.67-.33,3.33-0.67,5-1v1h6v-1h1v1h4v-1c1.33-.33,2.67-0.67,4-1,0.33-1,.67-2,1-3h1v2c-3.13,3.01.58,3.4-3,6v1c-0.67-.33-1.33-0.67-2-1h-1v1a2.541,2.541,0,0,1-3-1h-21v-1h1v-1h2q3-3.495,6-7h2a13.084,13.084,0,0,1,3-6h1v-2c0.67-.33,1.33-0.67,2-1v-3c0.67-.33,1.33-0.67,2-1v-2h1c1.13-3.05.28-12.54-1-14-0.62-2.61-1.06-2.85-3-4-2.34-2.3-5.03-2.09-8-1v-1c-1.13-.84-0.15.13-1-1h13c1.14,1.14,0,.4,2,1,1.67,2.33,3.33,4.67,5,7v8c-0.67.33-1.33,0.67-2,1-0.03,1.46,1.48,1.69,0,4-1,.67-2,1.33-3,2C1900.33,6153,1899.67,6155,1899,6157Zm87,11h-2c-0.91,3.8-8.59,8.43-15,6a47.059,47.059,0,0,1-6-4v-2c-1-.67-2-1.33-3-2v-3h-1v-2h-1v-11c0.01-4.46-.14-9.81,2-12a7.445,7.445,0,0,1,2-4h1v-2c1-.33,2-0.67,3-1,0.67-1,1.33-2,2-3h11c1.58,2.36,4.12,3.54,6,6h1v3h1v2h1v2h1v20C1988.28,6163.22,1986.62,6165.21,1986,6168Zm640-40v28c5.71,0.06,6.29-1.04,10-2v1h-1v4c-1.67.33-3.33,0.67-5,1v-1h-4c-0.16,6.88-.29,9.65,2,14h-10v-1c2.65-2.29,2.13-7.98,2-13-6.12.09-16.83,0.86-18,0h-1c0.33-1,.67-2,1-3,1.81-1.57.86-1.99,2-4h1v-2c1-.67,2-1.33,3-2v-3h1a8.534,8.534,0,0,0,2-4h2c-1.07,4.21-7.95,11.84-7,14,2.05,1.88,9.22,1.1,13,1,1.96-5.28,1.05-15.05,1-22h-2c-0.67,1.33-1.33,2.67-2,4-1.13-.84-0.15.13-1-1-1.13-.84-0.15.13-1-1C2620.12,6132.22,2615.85,6128.03,2626,6128Zm84,8h2c0.33,2.33.67,4.67,1,7h1c1.91,10.05-1.72,27.63-11,30-3.31,3.06-10.29-.9-15-2-0.83-3.15-2.94-4.57-4-7-1.31-3.02-3.49-15.08-2-20,1.28-4.23,4.01-7.56,5-12,2.72-.74,3.04-1.65,5-3v-1h12C2706.25,6131.34,2709.33,6130.7,2710,6136Zm260-8c5.07,0.27,13.28-.01,21,0-0.71,2.1-1.03.91,0,3h-1c-0.33.67-.67,1.33-1,2a105.787,105.787,0,0,0-17-1c-1,2.65-1.04,6.94-1,11h-1v5c5.71-.1,8.34.55,12,2h3v1c1,0.33,2,.67,3,1a9.768,9.768,0,0,0,2,4h1v4h1c-0.33,1.67-.67,3.33-1,5h-1c-0.33,1.33-.67,2.67-1,4h-1c-0.33.67-.67,1.33-1,2h-2c-0.33.67-.67,1.33-1,2q-6.495.495-13,1v-1c-2-.33-4-0.67-6-1v-2c2.7,0.67,4.84,2.4,7,3h4v-1c4.48-1.4,5.61.93,7-4,2-1.89.03-.51,1-3,1.81-4.62-.02-6.61-1-11-1.1-.6-1.57-1.74-2-2h-2v-1c-3.67-.33-7.33-0.67-11-1Q2969.005,6139.005,2970,6128Zm100,6h2c0.43,3.97,2.07,6.89,3,10v12h-1c0.33,0.67.67,1.33,1,2l-3,9c-2,1.67-4,3.33-6,5v1h-3c-6.2,2.35-7.53-.34-13-1v-2h-2a41.941,41.941,0,0,0-3-8h-1v-5h-1c-2.23-7.8,2.37-21.52,5-25,1-.33,2-0.67,3-1,0.33-.67.67-1.33,1-2h2v-1h11C3066.66,6130.7,3069,6130.57,3070,6134Zm-1868-5c-1.72,2.13-2.03.57-3,4-3.84,3.18-1.54,6.57-3,12-2.24,8.32.33,25.98,7,28,1.67-.33,3.33-0.67,5-1,1.07-1.88,3.18-4.1,4-6,1.05-2.44,3.2-17.92,2-22h-1v-6h-1v-3h-1c-1.72-3.46.47-3.71-4-5v-1h-5Zm361,0c-1.72,2.13-2.03.57-3,4-3.75,3.06-1.55,7.25-3,13h-1c-1.98,7.18,2.88,24.02,6,26,5.71,3.62,10.85-3.34,11-9h1v-6h1c1.83-6.55-1.74-23.23-4-26-1-.33-2-0.67-3-1v-1h-5Zm40,0c-1.72,2.13-2.03.57-3,4-4.02,3.41-1.45,8.19-3,14-1.73,6.49.2,20.91,5,24v1c1.67,0.33,3.33.67,5,1v-1c10.08-2.48,10.79-39.26,1-42v-1h-5Zm328,0c-1.72,2.13-2.03.57-3,4-3.77,3.19-1.53,7.56-3,13h-1c-1.25,4.59,2.52,21.93,4,24h1c1.34,1.5.5,1.35,3,2v1c1.67-.33,3.33-0.67,5-1,1.07-1.87,3.19-4.1,4-6,0.97-2.27,3.09-18.29,2-22h-1v-6h-1v-3h-1c-1.72-3.46.47-3.71-4-5v-1h-5Zm40,0c-1.72,2.13-2.03.57-3,4-3.8,3.21-1.45,8.18-3,14h-1v8h1v7h1v4h1c1.61,3.38.98,4.95,5,6v1c1.67-.33,3.33-0.67,5-1,1.07-1.88,3.18-4.1,4-6,1.05-2.44,3.2-17.92,2-22h-1v-6h-1v-3h-1c-1.72-3.46.47-3.71-4-5v-1h-5Zm320,0c-1.72,2.13-2.03.57-3,4-3.75,3.06-1.55,7.25-3,13h-1c-0.84,3.03.56,7.48,1,9v8c0.46,1.35,4.06,8.4,5,9,5.71,3.62,10.85-3.34,11-9h1v-6h1c1.83-6.55-1.74-23.23-4-26-1-.33-2-0.67-3-1v-1h-5Zm40,0c-1.72,2.13-2.03.57-3,4-4.1,3.43-1.45,7.19-3,13h-1c-1.33,4.88,2.45,21.84,4,24h1c1.34,1.5.5,1.35,3,2v1h3c1.33-1.61,2.85-2.07,4-4,3.5-3.32,4.77-19.06,3-25v-6h-1v-3h-1c-0.66-1.33-.9-4.34-2-5h-2v-1h-5Zm322,42h2c0.33,0.67.67,1.33,1,2h4c1.14-1.14,0-.4,2-1,1.33-2.33,2.67-4.67,4-7v-4c2.75-8.84.98-29.12-5-32h-6c-1.67,2.33-3.33,4.67-5,7-0.86,2.26-2.01,20.57-1,24h1v5h1C2651.67,6167,2652.33,6169,2653,6171Zm50,0c0.33-1,.67-2,1-3h1v-3h1v-5h1c1.26-4.43.23-20.97-1-24-1.67-2.33-3.33-4.67-5-7h-6c-1.21,2.13-2.25,2.18-3,5-2.23,2.19-4.86,19.93-3,26l3,9a21.939,21.939,0,0,1,5,4C2699,6172.33,2701,6171.67,2703,6171Zm313-42c-0.67,1-1.33,2-2,3h-1v2h-1c-1.33,2.96-3.54,20.79-2,26h1v5h1c0.33,1.33.67,2.67,1,4h1c0.67,1,1.33,2,2,3h1c1.18,0.78.1-.09,1,1,1.67-.33,3.33-0.67,5-1v-1c5.24-4.21,6.7-21.19,4-30v-5c-1.67-2.33-3.33-4.67-5-7h-6Zm38,42c3.08,0.63,3.46,1.6,7,2,1.14-1.14,0-.4,2-1,1.33-2.33,2.67-4.67,4-7v-4c2.75-8.84.98-29.12-5-32h-6c-1.67,2.33-3.33,4.67-5,7v5h-1c-1.3,4.53-.17,19.75,1,23C3051.8,6166.23,3053.37,6168.19,3054,6171Zm-1174-40h3v1c-1.23.78-2.72,3.33-3,3v-1c-0.86-1.12-.85.41-1-1C1879.33,6132.33,1879.67,6131.67,1880,6131Zm734,7c0.86,1.12.85-.41,1,1-0.33.67-.67,1.33-1,2h-1C2613.33,6140,2613.67,6139,2614,6138Zm-374,34v-3h1a7.724,7.724,0,0,0,3,2v1h-4Zm7,0v2a7.545,7.545,0,0,1-3-2h3Zm-1166,7v46h1c0.33,0.67.67,1.33,1,2h2v1h-14v-1c3.24-.33,2.94-0.91,5-2-2.46-7.05,2.42-18.46,0-28h-1a2.754,2.754,0,0,1,1-3v-3h-1c-0.07-1.23,1.7-2.54,1-5h-1v-4a8.977,8.977,0,0,1-2-2C1075.67,6179.67,1078.33,6179.33,1081,6179Zm-89,3h14c0.67,3,1.33,6,2,9h1q4,13.005,8,26h3q-1.5,4.995-3,10c-1-.33-2-0.67-3-1-0.16-4.56-1.89-5.96-3-9v-4h-1c-0.33-1.33-.67-2.67-1-4h-1v-5c-0.67-.33-1.33-0.67-2-1v-5h-1a30.37,30.37,0,0,1-3-10c-4.6-.68-2.433-0.91-5-3v-1h-5v-2Zm39,1c3.6-.12,10.07-0.77,12,1h-3c-2.11,1.36-1.16,11.6-1,15,2.08,2.43.34,8.04,1,12,0.23,1.4.61-.36,1,1v11h1v1h-1v1c0.62,1.27.55-.34,1,1h1v1h5v1c-4.62.12-15.36,1.39-18-1,6.2-.58,5.32-4.44,5-11h-1v-8q-0.495-9.495-1-19c-1,.33-2,0.67-3,1v-3h1v-4Zm24,9v-2h-1c0.33-1,.67-2,1-3,1.67-.33,3.33-0.67,5-1,1.09,2.08,1.61,1.77,2,5a3.978,3.978,0,0,0-2,2C1058.33,6192.67,1056.67,6192.33,1055,6192Zm-57-3h2q-1,18-2,36c1.162,0.58,1.577,1.75,2,2h3v1c-3.771.12-10.953,0.87-13-1,3.176-.26,3.822-1.01,6-2v-1h-1v-1h1v-7h1v-11h1C999.333,6200.37,998.141,6191.76,998,6189Zm31,1h1v3h-1v-3Zm-1,3h1v3h-1v-3Zm173,2h8v26h355c0.02-8.69.69-13.7,0-21-0.33-.67-0.67-1.33-1-2h1v-2c3.83-.29,4.59-1.31,6,0,0.92,0.97,2.52,5.66,2,8,0,0-1.43.52-1,3h1q-0.495,6.495-1,13c5.03,1.87,14.32,1.05,21,1,2.73,2.39,17.76,0,23,0h67c84.27,0,161.21-.03,248,0v-23c2.32-.87,4.41-1.02,8-1v24c2.58,0.17,3.45.14,5,1v1q15-1.005,30-2h317v-25c2.32-.87,4.41-1.02,8-1,0.6,5.46,0,17.44,0,26q16.5,0.495,33,1c8.34-2.35,21.91-1,32-1h121v1c6.18,1.76,16.29-.66,21-1,6.65-.48,22.01,0,32,0h119c-0.1-7.73-1.23-19.01,1-25,2.74,0.32,4.74,1.05,6,0,2.11,2.35,1.09,19.99,1,25h5c0.33,0.67.67,1.33,1,2h6v-1c1,0.33,2,.67,3,1v-1q18.495-.495,37-1h302v-26h5c2.67,7.24,1.05,23.64,1,33-2.85.68-2.53,1.8-3,2h-13v-1h-8v1c-3.33-.33-6.67-0.67-10-1v1c-0.34.05-3.58-1.64-6-1v1q-13.005-.495-26-1h-5c-1.39.24,0.41,0.85-1,1v-1h-4c-1.4.19,0.41,1.01-1,1v-1c-7.07-1.54-21.38.05-27,1-1.68.28-1.74-.94-2-1h-7v1c-2-.33-4-0.67-6-1h-13v1c-1-.33-2-0.67-3-1v1h-1v-1h-8c-9.73-.01-22.54-0.08-28,1q-6.495-.495-13-1-10.995-.495-22-1c-1.38.31,0.41,0.9-1,1v-1h-1v1h-13v-1c-3,.33-6,0.67-9,1,0,0-.01-1.31-2-1v1h-13s0.03-1.3-2-1v1c-3.45.76-6.19-1.26-8-1v1h-4v-1h-1v1h-6v-1h-1c-2.48,1.11-10.96,2.12-15,1v-1q-7.995.495-16,1s0.01-1.31-2-1v1h-33v-1c-3,.33-6,0.67-9,1h-27c-6.49,0-15.39-.96-19,0-5.19,1.38-24.12-.01-28-1q-9.495.495-19,1h-71c-1.42-.23-3.32-1.7-6-1-3.66.96-15.87,2.27-21,1v-1a2.625,2.625,0,0,0-3,1h-15c-3.33-.33-6.67-0.67-10-1-10.9,2.69-30.12,1.29-43,1-2.67-.33-5.33-0.67-8-1v1h-1v-1a2.591,2.591,0,0,0-3,1c-2.5.62-3.71-1.01-5-1v1h-13c-9.38,0-21.27.71-29-1-2.33.33-4.67,0.67-7,1-7.04-.86-23.54.03-34,0-3.52-.01-6.87-1.08-9-1v1h-1v-1c-2.29-.41-3,1-3,1-1.33-.33-2.67-0.67-4-1v1h-7v1h-12v-1h-6v1h-7v-1c-1,.33-2,0.67-3,1v-1h-10v1h-1v-1h-8v1h-1v-1c-1,.33-2,0.67-3,1v-1h-14a2.667,2.667,0,0,1-3,1v-1c-4.01-1-9.49.77-12,1-3.95-1.79-15.32-1.96-21-1v1h-1v-1h-9v1h-1v-1h-17v1h-1v-1c-1,.33-2,0.67-3,1v-1h-6v1c-1.68.28-1.73-.94-2-1h-11v1h-1v-1h-15v1h-4v-1h-26c-6.75-1.89-13.92,1.78-22,0v-1c-1.69-.28-1.73.94-2,1h-28c-1-.33-2-0.67-3-1v1c-3.95.9-10.09-1.3-12-1v1h-15v-1q-7.005.495-14,1h-2v-1c-1.69-.28-1.73.94-2,1h-21c-19.03,0-44.15,1.4-64-1-2.33.33-4.67,0.67-7,1-12.01.27-24.53-1.19-34,0v-1c-1.75-.32-1.65.91-2,1h-49c-10.54,0-23.06.07-32-1-2.65-.32-3,1-3,1-5.14,1.37-17.28-.18-21-1a2.625,2.625,0,0,0-3,1c-5.92,1.5-16.61-.03-21-1a2.625,2.625,0,0,0-3,1h-14c-10.8,0-24.94,1.31-34-1-3.67.33-7.33,0.67-11,1v-1c-2.07-.3-2,1-2,1h-17c-8.15,0-18.47.47-25-1-2,.33-4,0.67-6,1v-1c-2.07-.3-2,1-2,1h-40v-1q-16.005.495-32,1h-10v-1c-2.67.33-5.33,0.67-8,1v-1a2.636,2.636,0,0,0-3,1h-11c-6.43-1.33-25.7,0-40,0h-15v-1c-2.03-.35-3.73,1.84-7,1v-1c-3.33.33-6.67,0.67-10,1h-93c-11.22,0-25.48,1.13-35-1-2.67.33-5.33,0.67-8,1v-1h-1v1c-0.67-.33-1.33-0.67-2-1v1h-10v-1c-0.67.33-1.33,0.67-2,1v-1c-2.08-.3-2,1-2,1h-28v-1q-6,.495-12,1c-1.38-.29.41-0.97-1-1v1c-0.67-.33-1.33-0.67-2-1v1c-2.23.39-3-1-3-1-1.84-.31-2,1-2,1h-1v-1h-1v1h-5v-1q-7.5.495-15,1c-5.27-1.36-18.17-.24-25-3C1199.22,6218.46,1200.95,6204.39,1201,6195Zm-174,1c1.14,1.14.4,0,1,2h-1v-2Zm-1,2c1.14,1.14.4,0,1,2h-1v-2Zm33,0c1,0.33,2,.67,3,1v27c1,0.33,2,.67,3,1v1h-14v-1h4v-1c2.08-2.31,1.09-19.1,1-24a13.428,13.428,0,0,1-4-3h7v-1Zm58,12h-19c-0.87,2.32-1.02,4.41-1,8h1c0.33,1.67.67,3.33,1,5h2v2q6,0.495,12,1v1h-2v1c-1.69.99-13.29-.64-14-1v-1c-1-.33-2-0.67-3-1-0.84-3.89-5.16-8.96-3-15h1c1.14-2.52.45-2.1,0-4h1c1.37-1.86,2.34-2.32,3-5l11-3v1h3v1c3.65,1.53,2.71-.81,5,3h1C1116.33,6205.33,1116.67,6207.67,1117,6210Zm27-11v6h-1v-2c-1.72-1.13-1.36-.63-2-3h-9a3.978,3.978,0,0,1-2,2v2h1c-0.33,1-.67,2-1,3h1c1.13,1.72.63,1.36,3,2v2c7.58,0.46,11.28,4.39,11,13-2.77,1.57-4.04,3.2-8,4v-1c2.93-1.66,3.1-3.24,3-8-3.93-1.77-9.16-5.95-13-7-0.38-1.93-2.27-6.04-1-9,0.67-.33,1.33-0.67,2-1v-2c2.33-.33,4.67-0.67,7-1v-1C1138,6198.33,1141,6198.67,1144,6199Zm-45,9h12c-0.33-1.67-.67-3.33-1-5-2.75-1.58-1.8-2.47-6-3-1.14,1.14,0,.4-2,1C1100.73,6203.73,1099.47,6204.29,1099,6208Zm-74-7c1.14,1.14.4,0,1,2h-1v-2Zm-1,3c1.14,1.14.4,0,1,2h-1v-2Zm-1,2h1v3h-1v-3Zm-1,3c1.14,1.14.4,0,1,2h-1v-2Zm-2,5h1v3h-1v-3Zm105,6h1v4c1.19,0.64,2.89,2.94,3,3h6v1h-2v1a34.815,34.815,0,0,0-7-1C1125.13,6225.68,1124.98,6223.59,1125,6220Zm-10,4h2v1C1114.99,6224.43,1116.13,6225.12,1115,6224Zm-2,1h2v1C1112.99,6225.43,1114.13,6226.12,1113,6225Z" />
   </g>
</svg>
